<svg width="38" height="38" viewBox="0 0 42 42" fill="none" xmlns="http://www.w3.org/2000/svg">
<path fill-rule="evenodd" clip-rule="evenodd" d="M42 21C42 32.598 32.598 42 21 42C17.4957 42 14.1918 41.1416 11.2872 39.6237L0.134433 41.9716C0.0680271 41.9856 0.00727743 41.9308 0.0143815 41.8633L1.41199 28.586C0.500135 26.2331 0 23.6749 0 21C0 9.40202 9.40202 0 21 0C32.598 0 42 9.40202 42 21ZM31.5 21C31.5 26.799 26.799 31.5 21 31.5C19.2478 31.5 17.5959 31.0708 16.1436 30.3119L10.5 31.5L11.206 24.793C10.7501 23.6165 10.5 22.3375 10.5 21C10.5 15.201 15.201 10.5 21 10.5C26.799 10.5 31.5 15.201 31.5 21Z" fill="black"/>
</svg>
