<svg width="153" height="42" viewBox="0 0 153 42" fill="none" xmlns="http://www.w3.org/2000/svg">
<path fill-rule="evenodd" clip-rule="evenodd" d="M53.3666 20.951H55.9854L56.0016 17.7735H53.3829V16.7936C53.3533 16.4024 53.4946 16.0178 53.7697 15.7404C54.0448 15.463 54.4263 15.3205 54.8142 15.3504C55.2403 15.3522 55.6623 15.4343 56.0585 15.5923V11.9023C55.6062 11.7977 55.1441 11.7427 54.6801 11.7383C51.6791 11.7383 49.7069 13.3742 49.7069 16.5599V17.7899H47.8161V20.951H49.7069V30.791H53.3666V20.951ZM57.7989 30.791H61.4993V12.013H57.7989V30.791Z" fill="white"/>
<path fill-rule="evenodd" clip-rule="evenodd" d="M76.1998 21.331C75.1116 18.6886 72.5509 16.9682 69.7133 16.9732C67.8502 16.9498 66.0567 17.6858 64.7393 19.0141C63.4218 20.3425 62.6919 22.1508 62.7151 24.0293C62.7102 26.8904 64.4164 29.4724 67.0371 30.5696C69.6578 31.6668 72.676 31.0628 74.6825 29.0397C76.689 27.0166 77.288 23.9733 76.1998 21.331ZM72.9663 24.0293C72.9663 25.9071 71.6041 27.4856 69.7133 27.4856C67.8716 27.4215 66.4114 25.8976 66.4114 24.0395C66.4114 22.1815 67.8716 20.6576 69.7133 20.5935C71.6163 20.5935 72.9663 22.1515 72.9663 24.0293Z" fill="white"/>
<path d="M80.5745 17.2441L82.9492 26.2641L85.328 19.1014L84.6815 17.2482H88.3412L91.4763 26.2682L93.8022 17.2482H97.6083L93.6111 30.8151H89.7766L87.1009 23.3777L84.6164 30.8151H80.7534L76.7806 17.2482L80.5745 17.2441Z" fill="white"/>
<ellipse cx="20.3317" cy="21" rx="20.3317" ry="20.5" fill="#00EF8B"/>
<rect x="23.5156" y="17.7891" width="5.74168" height="5.7892" fill="white"/>
<path d="M17.7739 25.7472C17.7756 26.6268 17.2511 27.4207 16.4454 27.7581C15.6397 28.0955 14.7118 27.9098 14.0949 27.2878C13.478 26.6658 13.2938 25.7302 13.6285 24.9178C13.9631 24.1054 14.7504 23.5766 15.6228 23.5783H17.7739V17.7891H15.6228C12.4281 17.7874 9.54717 19.7267 8.32384 22.7024C7.10052 25.678 7.77588 29.1037 10.0349 31.3814C12.2939 33.6591 15.6914 34.34 18.6426 33.1066C21.5939 31.8731 23.5173 28.9683 23.5156 25.7472V23.5783H17.7739V25.7472Z" fill="white"/>
<path d="M25.6667 14.8945H32.124V9.10938H25.6667C21.3095 9.11389 17.7784 12.6742 17.7739 17.0675V17.7891H23.5156V17.0675C23.5178 15.8699 24.479 14.899 25.6667 14.8945Z" fill="white"/>
<path d="M17.7739 23.5783H23.5156V17.7891H17.7739V23.5783Z" fill="#00EF8B"/>
<path fill-rule="evenodd" clip-rule="evenodd" d="M108.132 31.0458C110.463 31.0989 112.608 29.7663 113.609 27.6428L113.593 30.7711H115.159V11.6855H113.593V20.6112C112.596 18.4877 110.462 17.1464 108.132 17.1795C104.31 17.1795 101.414 20.1766 101.414 24.1045C101.414 28.0323 104.293 31.0458 108.132 31.0458ZM103.358 22.0267C104.199 20.0168 106.16 18.7176 108.323 18.7376H108.344C109.753 18.7274 111.107 19.2914 112.098 20.3018C113.09 21.3122 113.635 22.6834 113.609 24.1045C113.614 26.2857 112.312 28.254 110.313 29.0875C108.314 29.921 106.013 29.4548 104.489 27.9071C102.965 26.3594 102.518 24.0367 103.358 22.0267Z" fill="white"/>
<path fill-rule="evenodd" clip-rule="evenodd" d="M128.876 19.17C127.582 17.866 125.819 17.1473 123.991 17.1787C120.202 17.1787 117.131 20.2754 117.131 24.0954C117.131 27.9154 120.202 31.0121 123.991 31.0121C127.779 31.0121 130.851 27.9154 130.851 24.0954C130.882 22.2516 130.169 20.474 128.876 19.17ZM128.987 26.23C128.13 28.235 126.156 29.5187 123.991 29.4787C122.582 29.4802 121.232 28.909 120.247 27.8943C119.261 26.8796 118.723 25.5072 118.753 24.0872C118.759 21.9038 120.072 19.9402 122.078 19.1176C124.084 18.295 126.384 18.7766 127.9 20.3364C129.415 21.8963 129.845 24.2249 128.987 26.23Z" fill="white"/>
<path d="M143.151 29.9672C140.68 31.5482 137.487 31.3775 135.195 29.5418C132.903 27.7062 132.016 24.6084 132.985 21.8236C133.953 19.0388 136.565 17.1781 139.492 17.1875C140.782 17.1838 142.048 17.5384 143.151 18.2125V20.0493C142.123 19.1924 140.826 18.7318 139.492 18.7496C136.545 18.7496 134.157 21.158 134.157 24.1288C134.157 27.0997 136.545 29.508 139.492 29.508C140.82 29.5172 142.111 29.0688 143.151 28.237V29.9672Z" fill="white"/>
<path d="M152.48 19.7609C151.607 19.0343 150.513 18.6333 149.381 18.6252C147.734 18.6252 146.803 19.4821 146.803 20.6752C146.803 21.5321 147.266 22.0036 148.202 22.5858L150.751 24.1479C152.508 25.2262 153 26.3332 153 27.4935C153 29.7608 151.219 31.0605 148.612 31.0605C147.423 31.0498 146.255 30.7457 145.209 30.1749V28.3053C146.142 29.1564 147.354 29.6295 148.612 29.6337C150.369 29.6337 151.382 28.7481 151.382 27.5058C151.382 26.6858 150.975 26.0954 149.755 25.3738L147.124 23.7338C145.75 22.9138 145.176 21.9093 145.176 20.6629C145.176 18.7277 146.6 17.1779 149.401 17.1779C150.473 17.1693 151.53 17.436 152.471 17.9528L152.48 19.7609Z" fill="white"/>
</svg>
