<svg width="153" height="42" viewBox="0 0 153 42" fill="none" xmlns="http://www.w3.org/2000/svg">
<path fill-rule="evenodd" clip-rule="evenodd" d="M53.3665 20.951H55.9852L56.0015 17.7735H53.3827V16.7936C53.3531 16.4024 53.4944 16.0178 53.7695 15.7404C54.0446 15.463 54.4261 15.3205 54.8141 15.3504C55.2402 15.3522 55.6622 15.4343 56.0584 15.5923V11.9023C55.6061 11.7977 55.1439 11.7427 54.6799 11.7383C51.6789 11.7383 49.7068 13.3742 49.7068 16.5599V17.7899H47.8159V20.951H49.7068V30.791H53.3665V20.951ZM57.7988 30.791H61.4992V12.013H57.7988V30.791Z" fill="black"/>
<path fill-rule="evenodd" clip-rule="evenodd" d="M76.1996 21.3319C75.1114 18.6895 72.5507 16.9692 69.713 16.9742C67.85 16.9508 66.0565 17.6867 64.7391 19.0151C63.4216 20.3435 62.6917 22.1518 62.7149 24.0303C62.71 26.8914 64.4162 29.4734 67.0369 30.5706C69.6575 31.6678 72.6758 31.0638 74.6823 29.0407C76.6888 27.0175 77.2878 23.9743 76.1996 21.3319ZM72.9661 24.0303C72.9661 25.9081 71.6039 27.4866 69.7131 27.4866C67.8714 27.4225 66.4112 25.8986 66.4112 24.0405C66.4112 22.1825 67.8714 20.6585 69.7131 20.5945C71.6161 20.5945 72.9661 22.1525 72.9661 24.0303Z" fill="black"/>
<path d="M80.5747 17.2441L82.9494 26.2641L85.3282 19.1014L84.6816 17.2482H88.3413L91.4765 26.2682L93.8024 17.2482H97.6085L93.6113 30.8151H89.7768L87.1011 23.3777L84.6166 30.8151H80.7536L76.7808 17.2482L80.5747 17.2441Z" fill="black"/>
<ellipse cx="20.3317" cy="21" rx="20.3317" ry="20.5" fill="#00EF8B"/>
<rect x="23.5156" y="17.79" width="5.74168" height="5.7892" fill="white"/>
<path d="M17.7739 25.7481C17.7755 26.6278 17.2511 27.4217 16.4454 27.759C15.6397 28.0964 14.7117 27.9108 14.0948 27.2888C13.4779 26.6668 13.2938 25.7311 13.6284 24.9188C13.963 24.1064 14.7504 23.5776 15.6228 23.5792H17.7739V17.79H15.6228C12.4281 17.7884 9.54712 19.7277 8.3238 22.7033C7.10048 25.679 7.77584 29.1047 10.0348 31.3824C12.2938 33.6601 15.6914 34.341 18.6426 33.1076C21.5938 31.8741 23.5172 28.9693 23.5156 25.7481V23.5792H17.7739V25.7481Z" fill="white"/>
<path d="M25.6667 14.8955H32.124V9.11035H25.6667C21.3095 9.11487 17.7784 12.6752 17.7739 17.0685V17.7901H23.5156V17.0685C23.5178 15.8709 24.4789 14.9 25.6667 14.8955Z" fill="white"/>
<path d="M17.7739 23.5792H23.5156V17.79H17.7739V23.5792Z" fill="#00EF8B"/>
<path fill-rule="evenodd" clip-rule="evenodd" d="M108.132 31.0448C110.463 31.0979 112.608 29.7654 113.609 27.6418L113.593 30.7701H115.159V11.6846H113.593V20.6103C112.596 18.4868 110.462 17.1455 108.132 17.1786C104.31 17.1786 101.415 20.1757 101.415 24.1035C101.415 28.0313 104.294 31.0448 108.132 31.0448ZM103.358 22.0258C104.199 20.0158 106.16 18.7166 108.323 18.7366H108.344C109.753 18.7264 111.107 19.2904 112.099 20.3008C113.09 21.3112 113.635 22.6824 113.609 24.1035C113.614 26.2847 112.312 28.253 110.313 29.0865C108.314 29.92 106.013 29.4538 104.489 27.9061C102.965 26.3584 102.518 24.0357 103.358 22.0258Z" fill="black"/>
<path fill-rule="evenodd" clip-rule="evenodd" d="M128.876 19.17C127.582 17.866 125.819 17.1473 123.991 17.1787C120.202 17.1787 117.131 20.2754 117.131 24.0954C117.131 27.9154 120.202 31.0121 123.991 31.0121C127.779 31.0121 130.851 27.9154 130.851 24.0954C130.882 22.2516 130.169 20.474 128.876 19.17ZM128.987 26.23C128.13 28.235 126.156 29.5187 123.991 29.4787C122.582 29.4802 121.232 28.909 120.247 27.8943C119.261 26.8796 118.723 25.5072 118.753 24.0872C118.759 21.9038 120.072 19.9402 122.078 19.1176C124.084 18.295 126.384 18.7766 127.9 20.3364C129.415 21.8963 129.845 24.2249 128.987 26.23Z" fill="black"/>
<path d="M143.151 29.9663C140.68 31.5473 137.487 31.3765 135.195 29.5408C132.903 27.7052 132.016 24.6075 132.985 21.8226C133.953 19.0378 136.565 17.1771 139.492 17.1866C140.782 17.1828 142.048 17.5374 143.151 18.2116V20.0484C142.123 19.1914 140.826 18.7308 139.492 18.7487C136.545 18.7487 134.157 21.157 134.157 24.1279C134.157 27.0987 136.545 29.5071 139.492 29.5071C140.82 29.5162 142.111 29.0678 143.151 28.2361V29.9663Z" fill="black"/>
<path d="M152.479 19.7619C151.607 19.0353 150.513 18.6342 149.381 18.6262C147.734 18.6262 146.803 19.4831 146.803 20.6762C146.803 21.5331 147.266 22.0046 148.202 22.5868L150.751 24.1489C152.508 25.2272 153 26.3342 153 27.4945C153 29.7618 151.219 31.0615 148.612 31.0615C147.423 31.0508 146.255 30.7467 145.209 30.1759V28.3063C146.142 29.1573 147.354 29.6305 148.612 29.6347C150.369 29.6347 151.382 28.7491 151.382 27.5068C151.382 26.6868 150.975 26.0964 149.755 25.3748L147.124 23.7348C145.75 22.9148 145.176 21.9103 145.176 20.6639C145.176 18.7287 146.599 17.1789 149.401 17.1789C150.473 17.1703 151.53 17.437 152.471 17.9538L152.479 19.7619Z" fill="black"/>
</svg>
