<svg width="22" height="22" viewBox="0 0 22 22" fill="none" xmlns="http://www.w3.org/2000/svg">
<path fill-rule="evenodd" clip-rule="evenodd" d="M22 11C22 17.0751 17.0751 22 11 22C9.16416 22 7.43336 21.5503 5.91176 20.755L0.134433 21.9712C0.0680271 21.9852 0.00727751 21.9304 0.0143816 21.8629L0.739581 14.9735C0.261962 13.7411 0 12.4011 0 11C0 4.92487 4.92487 0 11 0C17.0751 0 22 4.92487 22 11ZM16.5 11C16.5 14.0376 14.0376 16.5 11 16.5C10.0826 16.5 9.21769 16.2754 8.45721 15.8782L5.5 16.5008L5.86987 12.987C5.63101 12.3707 5.5 11.7006 5.5 11C5.5 7.96243 7.96243 5.5 11 5.5C14.0376 5.5 16.5 7.96243 16.5 11Z" fill="#F6F7F9"/>
</svg>
