<svg width="19" height="14" viewBox="0 0 19 14" fill="none" xmlns="http://www.w3.org/2000/svg">
<path d="M16.0948 1.17252C14.8487 0.617574 13.5305 0.223258 12.175 0C12.0061 0.29057 11.8089 0.681388 11.6728 0.992305C10.2113 0.783119 8.76322 0.783119 7.32857 0.992305C7.19261 0.681459 6.99088 0.29057 6.82047 0C5.4636 0.223361 4.14426 0.618681 2.89764 1.17542C0.416956 4.74372 -0.25554 8.22328 0.0806706 11.6536C1.72603 12.8232 3.32054 13.5337 4.88819 13.9986C5.27779 13.4886 5.62219 12.9487 5.91782 12.3844C5.35497 12.1804 4.81236 11.929 4.29644 11.6333C4.43221 11.5375 4.56478 11.4376 4.69396 11.3339C7.8202 12.7258 11.217 12.7258 14.306 11.3339C14.4358 11.437 14.5683 11.5368 14.7035 11.6333C14.1867 11.9298 13.6431 12.1817 13.0791 12.3859C13.3764 12.9524 13.7202 13.4929 14.1088 14C15.6779 13.5351 17.2739 12.8246 18.9192 11.6536C19.3138 7.67704 18.2453 4.22934 16.0948 1.17245V1.17252ZM6.34377 9.54403C5.40527 9.54403 4.63562 8.71004 4.63562 7.69449C4.63562 6.67895 5.38887 5.84355 6.34377 5.84355C7.29874 5.84355 8.06831 6.67746 8.05191 7.69449C8.05339 8.71004 7.29874 9.54403 6.34377 9.54403ZM12.6561 9.54403C11.7176 9.54403 10.9481 8.71004 10.9481 7.69449C10.9481 6.67895 11.7012 5.84355 12.6561 5.84355C13.6111 5.84355 14.3807 6.67746 14.3643 7.69449C14.3643 8.71004 13.6111 9.54403 12.6561 9.54403V9.54403Z" fill="white"/>
</svg>
