<svg width="153" height="41" viewBox="0 0 153 41" fill="none" xmlns="http://www.w3.org/2000/svg">
<path fill-rule="evenodd" clip-rule="evenodd" d="M53.3665 20.451H55.9852L56.0015 17.2735H53.3827V16.2936C53.3531 15.9024 53.4944 15.5178 53.7695 15.2404C54.0446 14.963 54.4261 14.8205 54.8141 14.8504C55.2402 14.8522 55.6622 14.9343 56.0584 15.0923V11.4023C55.6061 11.2977 55.1439 11.2427 54.6799 11.2383C51.6789 11.2383 49.7068 12.8742 49.7068 16.0599V17.2899H47.8159V20.451H49.7068V30.291H53.3665V20.451ZM57.7988 30.291H61.4992V11.513H57.7988V30.291Z" fill="#F6F7F9"/>
<path fill-rule="evenodd" clip-rule="evenodd" d="M76.1996 20.8319C75.1114 18.1895 72.5507 16.4692 69.713 16.4742C67.85 16.4508 66.0565 17.1867 64.7391 18.5151C63.4216 19.8435 62.6917 21.6518 62.7149 23.5303C62.71 26.3914 64.4162 28.9734 67.0369 30.0706C69.6575 31.1678 72.6758 30.5638 74.6823 28.5407C76.6888 26.5175 77.2878 23.4743 76.1996 20.8319ZM72.9661 23.5303C72.9661 25.4081 71.6039 26.9866 69.7131 26.9866C67.8714 26.9225 66.4112 25.3986 66.4112 23.5405C66.4112 21.6825 67.8714 20.1585 69.7131 20.0945C71.6161 20.0945 72.9661 21.6525 72.9661 23.5303Z" fill="#F6F7F9"/>
<path d="M80.5747 16.7441L82.9494 25.7641L85.3282 18.6014L84.6816 16.7482H88.3413L91.4765 25.7682L93.8024 16.7482H97.6085L93.6113 30.3151H89.7768L87.1011 22.8777L84.6166 30.3151H80.7536L76.7808 16.7482L80.5747 16.7441Z" fill="#F6F7F9"/>
<ellipse cx="20.3317" cy="20.5" rx="20.3317" ry="20.5" fill="#00EF8B"/>
<rect x="23.5156" y="17.29" width="5.74168" height="5.7892" fill="#F6F7F9"/>
<path d="M17.7739 25.2481C17.7755 26.1278 17.2511 26.9217 16.4454 27.259C15.6397 27.5964 14.7117 27.4108 14.0948 26.7888C13.4779 26.1668 13.2938 25.2311 13.6284 24.4188C13.963 23.6064 14.7504 23.0776 15.6228 23.0792H17.7739V17.29H15.6228C12.4281 17.2884 9.54712 19.2277 8.3238 22.2033C7.10048 25.179 7.77584 28.6047 10.0348 30.8824C12.2938 33.1601 15.6914 33.841 18.6426 32.6076C21.5938 31.3741 23.5172 28.4693 23.5156 25.2481V23.0792H17.7739V25.2481Z" fill="#F6F7F9"/>
<path d="M25.6667 14.3955H32.124V8.61035H25.6667C21.3095 8.61487 17.7784 12.1752 17.7739 16.5685V17.2901H23.5156V16.5685C23.5178 15.3709 24.4789 14.4 25.6667 14.3955Z" fill="#F6F7F9"/>
<path d="M17.7739 23.0792H23.5156V23.0792V17.29V17.29H17.7739V23.0792V23.0792Z" fill="#00EF8B"/>
<path fill-rule="evenodd" clip-rule="evenodd" d="M108.132 30.5448C110.463 30.5979 112.608 29.2654 113.609 27.1418L113.593 30.2701H115.159V11.1846H113.593V20.1103C112.596 17.9868 110.462 16.6455 108.132 16.6786C104.31 16.6786 101.415 19.6757 101.415 23.6035C101.415 27.5313 104.294 30.5448 108.132 30.5448ZM103.358 21.5258C104.199 19.5158 106.16 18.2166 108.323 18.2366H108.344C109.753 18.2264 111.107 18.7904 112.099 19.8008C113.09 20.8112 113.635 22.1824 113.609 23.6035C113.614 25.7847 112.312 27.753 110.313 28.5865C108.314 29.42 106.013 28.9538 104.489 27.4061C102.965 25.8584 102.518 23.5357 103.358 21.5258Z" fill="#F6F7F9"/>
<path fill-rule="evenodd" clip-rule="evenodd" d="M128.876 18.67C127.582 17.366 125.819 16.6473 123.991 16.6787C120.202 16.6787 117.131 19.7754 117.131 23.5954C117.131 27.4154 120.202 30.5121 123.991 30.5121C127.779 30.5121 130.851 27.4154 130.851 23.5954C130.882 21.7516 130.169 19.974 128.876 18.67ZM128.987 25.73C128.13 27.735 126.156 29.0187 123.991 28.9787C122.582 28.9802 121.232 28.409 120.247 27.3943C119.261 26.3796 118.723 25.0072 118.753 23.5872C118.759 21.4038 120.072 19.4402 122.078 18.6176C124.084 17.795 126.384 18.2766 127.9 19.8364C129.415 21.3963 129.845 23.7249 128.987 25.73Z" fill="#F6F7F9"/>
<path d="M143.151 29.4663C140.68 31.0473 137.487 30.8765 135.195 29.0408C132.903 27.2052 132.016 24.1075 132.985 21.3226C133.953 18.5378 136.565 16.6771 139.492 16.6866C140.782 16.6828 142.048 17.0374 143.151 17.7116V19.5484C142.123 18.6914 140.826 18.2308 139.492 18.2487C136.545 18.2487 134.157 20.657 134.157 23.6279C134.157 26.5987 136.545 29.0071 139.492 29.0071C140.82 29.0162 142.111 28.5678 143.151 27.7361V29.4663Z" fill="#F6F7F9"/>
<path d="M152.479 19.2619C151.607 18.5353 150.513 18.1342 149.381 18.1262C147.734 18.1262 146.803 18.9831 146.803 20.1762C146.803 21.0331 147.266 21.5046 148.202 22.0868L150.751 23.6489C152.508 24.7272 153 25.8342 153 26.9945C153 29.2618 151.219 30.5615 148.612 30.5615C147.423 30.5508 146.255 30.2467 145.209 29.6759V27.8063C146.142 28.6573 147.354 29.1305 148.612 29.1347C150.369 29.1347 151.382 28.2491 151.382 27.0068C151.382 26.1868 150.975 25.5964 149.755 24.8748L147.124 23.2348C145.75 22.4148 145.176 21.4103 145.176 20.1639C145.176 18.2287 146.599 16.6789 149.401 16.6789C150.473 16.6703 151.53 16.937 152.471 17.4538L152.479 19.2619Z" fill="#F6F7F9"/>
</svg>
